# xmcd CD database file
#
# Track frame offsets:
#	150
#	13517
#	34180
#	57670
#	71772
#
# Disc length: 1214 seconds
#
# Revision: 0
# Processed by: cddbd v1.5.1PL0 Copyright (c) Steve Scherf et al.
# Submitted via: CDex 1.51
#
DISCID=4204bc05
DTITLE=SOUL-D - ROCK IS FREEDOM
DYEAR=2001
DGENRE=Rock
TTITLE0=ZERO
TTITLE1=Super Ball
TTITLE2=flow
TTITLE3=MUSIC SYSTEM
TTITLE4=ROCK BOX
EXTD=YEAR: 2001
EXTT0=
EXTT1=
EXTT2=
EXTT3=
EXTT4=
PLAYORDER=
